<mxfile host="app.diagrams.net" agent="Mozilla/5.0 (Windows NT 10.0; Win64; x64; rv:132.0) Gecko/20100101 Firefox/132.0" version="24.8.4">
  <diagram name="Página-1" id="rd1araRLgyyqAQQ0E0fI">
    <mxGraphModel dx="1434" dy="774" grid="1" gridSize="10" guides="1" tooltips="1" connect="1" arrows="1" fold="1" page="1" pageScale="1" pageWidth="827" pageHeight="1169" math="0" shadow="0">
      <root>
        <mxCell id="0" />
        <mxCell id="1" parent="0" />
        <mxCell id="WoEynEt4-xypaKONyxZ4-12" value="" style="rounded=0;whiteSpace=wrap;html=1;" vertex="1" parent="1">
          <mxGeometry x="190" y="120" width="270" height="160" as="geometry" />
        </mxCell>
        <mxCell id="WoEynEt4-xypaKONyxZ4-13" value="" style="whiteSpace=wrap;html=1;aspect=fixed;" vertex="1" parent="1">
          <mxGeometry x="460" y="120" width="80" height="80" as="geometry" />
        </mxCell>
        <mxCell id="WoEynEt4-xypaKONyxZ4-14" value="" style="whiteSpace=wrap;html=1;aspect=fixed;" vertex="1" parent="1">
          <mxGeometry x="460" y="200" width="80" height="80" as="geometry" />
        </mxCell>
        <mxCell id="WoEynEt4-xypaKONyxZ4-16" value="1º andar" style="text;html=1;align=center;verticalAlign=middle;whiteSpace=wrap;rounded=0;" vertex="1" parent="1">
          <mxGeometry x="340" y="80" width="60" height="30" as="geometry" />
        </mxCell>
        <mxCell id="WoEynEt4-xypaKONyxZ4-25" value="&lt;div&gt;2ºandar&lt;/div&gt;" style="text;html=1;align=center;verticalAlign=middle;whiteSpace=wrap;rounded=0;" vertex="1" parent="1">
          <mxGeometry x="340" y="320" width="60" height="30" as="geometry" />
        </mxCell>
        <mxCell id="WoEynEt4-xypaKONyxZ4-26" value="3ºandar" style="text;html=1;align=center;verticalAlign=middle;whiteSpace=wrap;rounded=0;" vertex="1" parent="1">
          <mxGeometry x="340" y="560" width="60" height="30" as="geometry" />
        </mxCell>
        <mxCell id="WoEynEt4-xypaKONyxZ4-40" value="" style="shape=corner;whiteSpace=wrap;html=1;" vertex="1" parent="1">
          <mxGeometry x="190" y="120" width="60" height="60" as="geometry" />
        </mxCell>
        <mxCell id="WoEynEt4-xypaKONyxZ4-46" value="" style="whiteSpace=wrap;html=1;aspect=fixed;" vertex="1" parent="1">
          <mxGeometry x="240" y="170" width="40" height="40" as="geometry" />
        </mxCell>
        <mxCell id="WoEynEt4-xypaKONyxZ4-47" value="" style="whiteSpace=wrap;html=1;aspect=fixed;" vertex="1" parent="1">
          <mxGeometry x="280" y="170" width="40" height="40" as="geometry" />
        </mxCell>
        <mxCell id="WoEynEt4-xypaKONyxZ4-48" value="" style="whiteSpace=wrap;html=1;aspect=fixed;" vertex="1" parent="1">
          <mxGeometry x="320" y="170" width="40" height="40" as="geometry" />
        </mxCell>
        <mxCell id="WoEynEt4-xypaKONyxZ4-49" value="" style="whiteSpace=wrap;html=1;aspect=fixed;" vertex="1" parent="1">
          <mxGeometry x="360" y="170" width="40" height="40" as="geometry" />
        </mxCell>
        <mxCell id="WoEynEt4-xypaKONyxZ4-50" value="" style="whiteSpace=wrap;html=1;aspect=fixed;" vertex="1" parent="1">
          <mxGeometry x="240" y="210" width="40" height="40" as="geometry" />
        </mxCell>
        <mxCell id="WoEynEt4-xypaKONyxZ4-51" value="" style="whiteSpace=wrap;html=1;aspect=fixed;" vertex="1" parent="1">
          <mxGeometry x="280" y="210" width="40" height="40" as="geometry" />
        </mxCell>
        <mxCell id="WoEynEt4-xypaKONyxZ4-52" value="" style="whiteSpace=wrap;html=1;aspect=fixed;" vertex="1" parent="1">
          <mxGeometry x="320" y="210" width="40" height="40" as="geometry" />
        </mxCell>
        <mxCell id="WoEynEt4-xypaKONyxZ4-53" value="" style="whiteSpace=wrap;html=1;aspect=fixed;" vertex="1" parent="1">
          <mxGeometry x="360" y="210" width="40" height="40" as="geometry" />
        </mxCell>
        <mxCell id="WoEynEt4-xypaKONyxZ4-66" value="" style="rounded=0;whiteSpace=wrap;html=1;" vertex="1" parent="1">
          <mxGeometry x="180" y="360" width="270" height="160" as="geometry" />
        </mxCell>
        <mxCell id="WoEynEt4-xypaKONyxZ4-67" value="" style="whiteSpace=wrap;html=1;aspect=fixed;" vertex="1" parent="1">
          <mxGeometry x="450" y="360" width="80" height="80" as="geometry" />
        </mxCell>
        <mxCell id="WoEynEt4-xypaKONyxZ4-68" value="" style="whiteSpace=wrap;html=1;aspect=fixed;" vertex="1" parent="1">
          <mxGeometry x="450" y="440" width="80" height="80" as="geometry" />
        </mxCell>
        <mxCell id="WoEynEt4-xypaKONyxZ4-69" value="" style="shape=corner;whiteSpace=wrap;html=1;" vertex="1" parent="1">
          <mxGeometry x="180" y="360" width="60" height="60" as="geometry" />
        </mxCell>
        <mxCell id="WoEynEt4-xypaKONyxZ4-70" value="" style="whiteSpace=wrap;html=1;aspect=fixed;" vertex="1" parent="1">
          <mxGeometry x="230" y="410" width="40" height="40" as="geometry" />
        </mxCell>
        <mxCell id="WoEynEt4-xypaKONyxZ4-71" value="" style="whiteSpace=wrap;html=1;aspect=fixed;" vertex="1" parent="1">
          <mxGeometry x="270" y="410" width="40" height="40" as="geometry" />
        </mxCell>
        <mxCell id="WoEynEt4-xypaKONyxZ4-72" value="" style="whiteSpace=wrap;html=1;aspect=fixed;" vertex="1" parent="1">
          <mxGeometry x="310" y="410" width="40" height="40" as="geometry" />
        </mxCell>
        <mxCell id="WoEynEt4-xypaKONyxZ4-73" value="" style="whiteSpace=wrap;html=1;aspect=fixed;" vertex="1" parent="1">
          <mxGeometry x="350" y="410" width="40" height="40" as="geometry" />
        </mxCell>
        <mxCell id="WoEynEt4-xypaKONyxZ4-74" value="" style="whiteSpace=wrap;html=1;aspect=fixed;" vertex="1" parent="1">
          <mxGeometry x="230" y="450" width="40" height="40" as="geometry" />
        </mxCell>
        <mxCell id="WoEynEt4-xypaKONyxZ4-75" value="" style="whiteSpace=wrap;html=1;aspect=fixed;" vertex="1" parent="1">
          <mxGeometry x="270" y="450" width="40" height="40" as="geometry" />
        </mxCell>
        <mxCell id="WoEynEt4-xypaKONyxZ4-76" value="" style="whiteSpace=wrap;html=1;aspect=fixed;" vertex="1" parent="1">
          <mxGeometry x="310" y="450" width="40" height="40" as="geometry" />
        </mxCell>
        <mxCell id="WoEynEt4-xypaKONyxZ4-77" value="" style="whiteSpace=wrap;html=1;aspect=fixed;" vertex="1" parent="1">
          <mxGeometry x="350" y="450" width="40" height="40" as="geometry" />
        </mxCell>
        <mxCell id="WoEynEt4-xypaKONyxZ4-78" value="" style="rounded=0;whiteSpace=wrap;html=1;" vertex="1" parent="1">
          <mxGeometry x="180" y="620" width="270" height="160" as="geometry" />
        </mxCell>
        <mxCell id="WoEynEt4-xypaKONyxZ4-79" value="" style="whiteSpace=wrap;html=1;aspect=fixed;" vertex="1" parent="1">
          <mxGeometry x="450" y="620" width="80" height="80" as="geometry" />
        </mxCell>
        <mxCell id="WoEynEt4-xypaKONyxZ4-80" value="" style="whiteSpace=wrap;html=1;aspect=fixed;" vertex="1" parent="1">
          <mxGeometry x="450" y="700" width="80" height="80" as="geometry" />
        </mxCell>
        <mxCell id="WoEynEt4-xypaKONyxZ4-81" value="" style="shape=corner;whiteSpace=wrap;html=1;" vertex="1" parent="1">
          <mxGeometry x="180" y="620" width="60" height="60" as="geometry" />
        </mxCell>
        <mxCell id="WoEynEt4-xypaKONyxZ4-82" value="" style="whiteSpace=wrap;html=1;aspect=fixed;" vertex="1" parent="1">
          <mxGeometry x="230" y="670" width="40" height="40" as="geometry" />
        </mxCell>
        <mxCell id="WoEynEt4-xypaKONyxZ4-83" value="" style="whiteSpace=wrap;html=1;aspect=fixed;" vertex="1" parent="1">
          <mxGeometry x="270" y="670" width="40" height="40" as="geometry" />
        </mxCell>
        <mxCell id="WoEynEt4-xypaKONyxZ4-84" value="" style="whiteSpace=wrap;html=1;aspect=fixed;" vertex="1" parent="1">
          <mxGeometry x="310" y="670" width="40" height="40" as="geometry" />
        </mxCell>
        <mxCell id="WoEynEt4-xypaKONyxZ4-85" value="" style="whiteSpace=wrap;html=1;aspect=fixed;" vertex="1" parent="1">
          <mxGeometry x="350" y="670" width="40" height="40" as="geometry" />
        </mxCell>
        <mxCell id="WoEynEt4-xypaKONyxZ4-86" value="" style="whiteSpace=wrap;html=1;aspect=fixed;" vertex="1" parent="1">
          <mxGeometry x="230" y="710" width="40" height="40" as="geometry" />
        </mxCell>
        <mxCell id="WoEynEt4-xypaKONyxZ4-87" value="" style="whiteSpace=wrap;html=1;aspect=fixed;" vertex="1" parent="1">
          <mxGeometry x="270" y="710" width="40" height="40" as="geometry" />
        </mxCell>
        <mxCell id="WoEynEt4-xypaKONyxZ4-88" value="" style="whiteSpace=wrap;html=1;aspect=fixed;" vertex="1" parent="1">
          <mxGeometry x="310" y="710" width="40" height="40" as="geometry" />
        </mxCell>
        <mxCell id="WoEynEt4-xypaKONyxZ4-89" value="" style="whiteSpace=wrap;html=1;aspect=fixed;" vertex="1" parent="1">
          <mxGeometry x="350" y="710" width="40" height="40" as="geometry" />
        </mxCell>
      </root>
    </mxGraphModel>
  </diagram>
</mxfile>
